M48
;DRILL file {Pcbnew (2014-02-26 BZR 4721)-product} date Wednesday, 03 June 2015 14:53:17
;FORMAT={2:4/ absolute / inch / suppress leading zeros}
FMAT,2
INCH,TZ
T1C0.025
T2C0.032
T3C0.040
T4C0.125
%
G90
G05
M72
T1
X33465Y-31693
X34843Y-31693
X35433Y-30709
X35433Y-31299
X36811Y-34055
X37008Y-40157
X37795Y-38386
X39567Y-36614
X40748Y-40157
X43504Y-36811
X44094Y-39764
X44291Y-38780
X45276Y-41929
X46850Y-36220
X50984Y-38386
X53543Y-38386
T2
X40365Y-29832
X41365Y-29832
X42365Y-29832
X43365Y-29832
X43965Y-48832
X44365Y-29832
X44965Y-48832
X45365Y-29832
X45965Y-48832
X46365Y-29832
X46965Y-48832
X47365Y-29832
X47965Y-48832
X48965Y-29832
X48965Y-48832
X49965Y-29832
X50965Y-29832
X50965Y-48832
X51965Y-29832
X51965Y-48832
X52965Y-29832
X52965Y-48832
X53965Y-29832
X53965Y-48832
X54965Y-29832
X54965Y-48832
X55965Y-29832
X55965Y-48832
T3
X33949Y-42126
X34949Y-42126
X39067Y-42126
X40067Y-42126
X41339Y-37886
X41339Y-38886
X43004Y-34646
X44004Y-34646
X47335Y-45669
X48335Y-45669
X50197Y-43504
X51075Y-45669
X51559Y-32283
X52075Y-45669
X52559Y-32283
X53559Y-32283
X54421Y-45669
X54724Y-35039
X55118Y-42717
X55421Y-45669
X56693Y-42610
X56693Y-43610
T4
X36465Y-48832
X36965Y-29832
X56965Y-35832
X56965Y-46832
T0
M30
