%FSLAX34Y34*%
G04 Gerber Fmt 3.4, Leading zero omitted, Abs format*
G04 (created by PCBNEW (2014-02-26 BZR 4721)-product) date Wednesday, 03 June 2015 14:52:33*
%MOIN*%
G01*
G70*
G90*
G04 APERTURE LIST*
%ADD10C,0.005906*%
%ADD11R,0.071000X0.063000*%
%ADD12R,0.051200X0.059000*%
%ADD13R,0.059000X0.051200*%
%ADD14R,0.060000X0.060000*%
%ADD15C,0.060000*%
%ADD16R,0.070000X0.059800*%
%ADD17R,0.023600X0.059085*%
%ADD18O,0.060000X0.100000*%
%ADD19C,0.155000*%
%ADD20R,0.086600X0.023600*%
%ADD21R,0.013700X0.035400*%
%ADD22C,0.035000*%
%ADD23C,0.019685*%
%ADD24C,0.011811*%
G04 APERTURE END LIST*
G54D10*
G54D11*
X38582Y-35276D03*
X38582Y-36376D03*
G54D12*
X36239Y-38582D03*
X36989Y-38582D03*
G54D13*
X37401Y-35254D03*
X37401Y-36004D03*
X48818Y-38367D03*
X48818Y-37617D03*
X53740Y-42735D03*
X53740Y-43485D03*
G54D14*
X51559Y-32283D03*
G54D15*
X52559Y-32283D03*
X53559Y-32283D03*
G54D16*
X51060Y-40552D03*
X52060Y-40552D03*
X53058Y-40552D03*
X54058Y-40552D03*
X54058Y-37006D03*
X53058Y-37006D03*
X52060Y-37006D03*
X51060Y-37006D03*
G54D14*
X51074Y-45669D03*
G54D15*
X52074Y-45669D03*
G54D14*
X43003Y-34645D03*
G54D15*
X44003Y-34645D03*
G54D14*
X39066Y-42125D03*
G54D15*
X40066Y-42125D03*
G54D14*
X54421Y-45669D03*
G54D15*
X55421Y-45669D03*
G54D14*
X47334Y-45669D03*
G54D15*
X48334Y-45669D03*
G54D14*
X33948Y-42125D03*
G54D15*
X34948Y-42125D03*
G54D14*
X56692Y-42610D03*
G54D15*
X56692Y-43610D03*
G54D14*
X41338Y-38885D03*
G54D15*
X41338Y-37885D03*
G54D14*
X50196Y-43503D03*
X55118Y-42716D03*
X54724Y-35039D03*
G54D17*
X49390Y-33737D03*
X49015Y-34766D03*
X48640Y-33737D03*
G54D13*
X38385Y-33286D03*
X38385Y-34036D03*
G54D12*
X46831Y-34645D03*
X46081Y-34645D03*
X49390Y-31889D03*
X48640Y-31889D03*
X50178Y-47244D03*
X49428Y-47244D03*
G54D13*
X33070Y-32695D03*
X33070Y-33445D03*
X34448Y-32695D03*
X34448Y-33445D03*
G54D12*
X43682Y-37992D03*
X42932Y-37992D03*
X43682Y-38976D03*
X42932Y-38976D03*
G54D13*
X52165Y-42735D03*
X52165Y-43485D03*
G54D12*
X52380Y-35039D03*
X53130Y-35039D03*
G54D18*
X55964Y-48832D03*
X54964Y-48832D03*
X53964Y-48832D03*
X50964Y-48832D03*
X51964Y-48832D03*
X52964Y-48832D03*
X48964Y-48832D03*
X47964Y-48832D03*
X46964Y-48832D03*
X44964Y-48832D03*
X43964Y-48832D03*
X55964Y-29832D03*
X54964Y-29832D03*
X53964Y-29832D03*
X52964Y-29832D03*
X51964Y-29832D03*
X50964Y-29832D03*
X49964Y-29832D03*
X48964Y-29832D03*
X47364Y-29832D03*
X46364Y-29832D03*
X45364Y-29832D03*
X44364Y-29832D03*
X43364Y-29832D03*
X42364Y-29832D03*
X41364Y-29832D03*
X40364Y-29832D03*
X45964Y-48832D03*
G54D19*
X56964Y-46832D03*
X56964Y-35832D03*
X36964Y-29832D03*
X36464Y-48832D03*
G54D20*
X45236Y-37476D03*
X45236Y-37976D03*
X45236Y-38476D03*
X45236Y-38976D03*
X45236Y-39476D03*
X45236Y-39976D03*
X45236Y-40476D03*
X47282Y-40476D03*
X47282Y-39976D03*
X47282Y-39476D03*
X47282Y-38976D03*
X47282Y-38476D03*
X47282Y-37976D03*
X47282Y-37476D03*
G54D21*
X36396Y-35089D03*
X36140Y-35089D03*
X35884Y-35089D03*
X35629Y-35089D03*
X35374Y-35089D03*
X35118Y-35089D03*
X34862Y-35089D03*
X34862Y-37332D03*
X35118Y-37332D03*
X35374Y-37332D03*
X35629Y-37332D03*
X35884Y-37332D03*
X36140Y-37332D03*
X36396Y-37332D03*
G54D22*
X45275Y-41929D03*
X37795Y-38385D03*
X39566Y-36614D03*
X53543Y-38385D03*
X50984Y-38385D03*
X35433Y-31299D03*
X44094Y-39763D03*
X43503Y-36811D03*
X35433Y-30708D03*
X40748Y-40157D03*
X37007Y-40157D03*
X46850Y-36220D03*
X44291Y-38779D03*
X33464Y-31692D03*
X34842Y-31692D03*
X36811Y-34055D03*
G54D23*
X53964Y-48832D02*
X53964Y-48255D01*
X52468Y-46759D02*
X52074Y-45669D01*
X53964Y-48255D02*
X52468Y-46759D01*
X54964Y-48832D02*
X54964Y-47200D01*
X55421Y-46744D02*
X55421Y-45669D01*
X54964Y-47200D02*
X55421Y-46744D01*
G54D24*
X50964Y-29832D02*
X50964Y-30925D01*
X50000Y-31889D02*
X49390Y-31889D01*
X50964Y-30925D02*
X50000Y-31889D01*
G54D23*
X52964Y-48832D02*
X52964Y-48437D01*
X51968Y-47440D02*
X50178Y-47244D01*
X52964Y-48437D02*
X51968Y-47440D01*
G54D24*
X45236Y-40476D02*
X45236Y-41890D01*
X45236Y-41890D02*
X45275Y-41929D01*
X45236Y-39476D02*
X45578Y-39476D01*
X45744Y-40476D02*
X45236Y-40476D01*
X46062Y-40157D02*
X45744Y-40476D01*
X46062Y-39960D02*
X46062Y-40157D01*
X45578Y-39476D02*
X46062Y-39960D01*
X36989Y-38582D02*
X37598Y-38582D01*
X37598Y-38582D02*
X37795Y-38385D01*
X38820Y-36614D02*
X39566Y-36614D01*
X38013Y-36004D02*
X38820Y-36614D01*
X37401Y-36004D02*
X38013Y-36004D01*
X35884Y-37332D02*
X35884Y-37656D01*
X36989Y-38170D02*
X36989Y-38582D01*
X36811Y-37992D02*
X36989Y-38170D01*
X36220Y-37992D02*
X36811Y-37992D01*
X35884Y-37656D02*
X36220Y-37992D01*
X48818Y-38367D02*
X50965Y-38367D01*
X54058Y-37871D02*
X54058Y-37006D01*
X53543Y-38385D02*
X54058Y-37871D01*
X50965Y-38367D02*
X50984Y-38385D01*
X48818Y-38367D02*
X48818Y-38385D01*
X48228Y-38976D02*
X47282Y-38976D01*
X48818Y-38385D02*
X48228Y-38976D01*
X48818Y-38367D02*
X48247Y-38367D01*
X47298Y-37992D02*
X47282Y-37976D01*
X47872Y-37992D02*
X47298Y-37992D01*
X48247Y-38367D02*
X47872Y-37992D01*
X48818Y-38367D02*
X48818Y-39173D01*
X48015Y-39976D02*
X47282Y-39976D01*
X48818Y-39173D02*
X48015Y-39976D01*
X52964Y-29832D02*
X52964Y-30917D01*
X53559Y-31511D02*
X53559Y-32283D01*
X52964Y-30917D02*
X53559Y-31511D01*
X34448Y-33445D02*
X33839Y-33445D01*
X34645Y-31299D02*
X35433Y-31299D01*
X33858Y-32086D02*
X34645Y-31299D01*
X33858Y-33427D02*
X33858Y-32086D01*
X33839Y-33445D02*
X33858Y-33427D01*
X34862Y-37332D02*
X34714Y-37332D01*
X33464Y-34823D02*
X34448Y-33445D01*
X33464Y-37204D02*
X33464Y-34823D01*
X33661Y-37401D02*
X33464Y-37204D01*
X34645Y-37401D02*
X33661Y-37401D01*
X34714Y-37332D02*
X34645Y-37401D01*
X35374Y-35089D02*
X35374Y-31947D01*
X43666Y-29133D02*
X44364Y-29832D01*
X39173Y-29133D02*
X43666Y-29133D01*
X37401Y-30905D02*
X39173Y-29133D01*
X36417Y-30905D02*
X37401Y-30905D01*
X35374Y-31947D02*
X36417Y-30905D01*
X53740Y-42735D02*
X53740Y-41234D01*
X53740Y-41234D02*
X53058Y-40552D01*
X56692Y-42610D02*
X55224Y-42610D01*
X55099Y-42735D02*
X53740Y-42735D01*
X55224Y-42610D02*
X55099Y-42735D01*
X53740Y-43485D02*
X56567Y-43485D01*
X56567Y-43485D02*
X56692Y-43610D01*
X52165Y-43485D02*
X53740Y-43485D01*
X50196Y-43503D02*
X52146Y-43503D01*
X52146Y-43503D02*
X52165Y-43485D01*
X52165Y-42735D02*
X52165Y-40657D01*
X52165Y-40657D02*
X52060Y-40552D01*
X46081Y-34645D02*
X44003Y-34645D01*
G54D23*
X49428Y-47244D02*
X49821Y-46369D01*
X49821Y-46369D02*
X48334Y-45669D01*
G54D24*
X42932Y-38976D02*
X41429Y-38976D01*
X41429Y-38976D02*
X41338Y-38885D01*
X42932Y-37992D02*
X41444Y-37992D01*
X41444Y-37992D02*
X41338Y-37885D01*
X46831Y-34645D02*
X46831Y-34073D01*
X47167Y-33737D02*
X48640Y-33737D01*
X46831Y-34073D02*
X47167Y-33737D01*
X48640Y-31889D02*
X48640Y-32302D01*
X49390Y-33052D02*
X49390Y-33737D01*
X48640Y-32302D02*
X49390Y-33052D01*
X45236Y-37976D02*
X43697Y-37976D01*
X43697Y-37976D02*
X43682Y-37992D01*
X45236Y-37476D02*
X45236Y-37362D01*
X44881Y-38976D02*
X45236Y-38976D01*
X44094Y-39763D02*
X44881Y-38976D01*
X44685Y-36811D02*
X43503Y-36811D01*
X45236Y-37362D02*
X44685Y-36811D01*
X36396Y-37332D02*
X38316Y-37332D01*
X40066Y-39082D02*
X40066Y-42125D01*
X38316Y-37332D02*
X40066Y-39082D01*
X35374Y-37332D02*
X35374Y-38837D01*
X34948Y-39263D02*
X34948Y-42125D01*
X35374Y-38837D02*
X34948Y-39263D01*
X53058Y-37006D02*
X53058Y-37886D01*
X45956Y-38476D02*
X45236Y-38476D01*
X46456Y-38779D02*
X45956Y-38476D01*
X46456Y-41535D02*
X46456Y-38779D01*
X47047Y-42322D02*
X46456Y-41535D01*
X47637Y-42322D02*
X47047Y-42322D01*
X48818Y-41141D02*
X47637Y-42322D01*
X48818Y-40354D02*
X48818Y-41141D01*
X49803Y-39370D02*
X48818Y-40354D01*
X51574Y-39370D02*
X49803Y-39370D01*
X53058Y-37886D02*
X51574Y-39370D01*
X53130Y-35039D02*
X53130Y-36933D01*
X53130Y-36933D02*
X53058Y-37006D01*
X54724Y-35039D02*
X53130Y-35039D01*
X55964Y-29832D02*
X55964Y-33799D01*
X55964Y-33799D02*
X54724Y-35039D01*
X35629Y-35089D02*
X35629Y-33858D01*
X41488Y-30708D02*
X42364Y-29832D01*
X38779Y-30708D02*
X41488Y-30708D01*
X35629Y-33858D02*
X38779Y-30708D01*
X33070Y-33445D02*
X32499Y-33445D01*
X35236Y-30905D02*
X35433Y-30708D01*
X32086Y-30905D02*
X35236Y-30905D01*
X31889Y-31102D02*
X32086Y-30905D01*
X31889Y-32836D02*
X31889Y-31102D01*
X32499Y-33445D02*
X31889Y-32836D01*
X35118Y-37332D02*
X35118Y-37715D01*
X32874Y-34036D02*
X33070Y-33445D01*
X32874Y-37795D02*
X32874Y-34036D01*
X33464Y-38385D02*
X32874Y-37795D01*
X34448Y-38385D02*
X33464Y-38385D01*
X35118Y-37715D02*
X34448Y-38385D01*
X38385Y-33286D02*
X41910Y-33286D01*
X41910Y-33286D02*
X45364Y-29832D01*
X35884Y-35089D02*
X35884Y-34390D01*
X36989Y-33286D02*
X38385Y-33286D01*
X35884Y-34390D02*
X36989Y-33286D01*
X38582Y-35276D02*
X39213Y-35276D01*
X40354Y-39763D02*
X40748Y-40157D01*
X40354Y-36417D02*
X40354Y-39763D01*
X39213Y-35276D02*
X40354Y-36417D01*
X43682Y-38976D02*
X43682Y-39388D01*
X43682Y-39388D02*
X42913Y-40157D01*
X42913Y-40157D02*
X40748Y-40157D01*
X36239Y-39388D02*
X36239Y-38582D01*
X37007Y-40157D02*
X36239Y-39388D01*
X47282Y-36652D02*
X47282Y-37476D01*
X46850Y-36220D02*
X47282Y-36652D01*
X44094Y-38976D02*
X44291Y-38779D01*
X43682Y-38976D02*
X44094Y-38976D01*
X36989Y-34842D02*
X37401Y-35254D01*
X36417Y-34842D02*
X36989Y-34842D01*
X36396Y-34862D02*
X36417Y-34842D01*
X36396Y-35089D02*
X36396Y-34862D01*
X33464Y-31692D02*
X33070Y-32695D01*
X37401Y-35254D02*
X37401Y-34645D01*
X34842Y-31692D02*
X34448Y-32695D01*
X37401Y-34645D02*
X36811Y-34055D01*
X38582Y-35276D02*
X37423Y-35276D01*
X37423Y-35276D02*
X37401Y-35254D01*
X38582Y-35276D02*
X38385Y-34036D01*
X45964Y-48832D02*
X45964Y-46948D01*
X43682Y-44666D02*
X43682Y-38976D01*
X45964Y-46948D02*
X43682Y-44666D01*
X48818Y-37617D02*
X47423Y-37617D01*
X47423Y-37617D02*
X47282Y-37476D01*
X52380Y-35039D02*
X52380Y-34073D01*
X51559Y-33251D02*
X51559Y-32283D01*
X52380Y-34073D02*
X51559Y-33251D01*
X52060Y-37006D02*
X52060Y-35360D01*
X52060Y-35360D02*
X52380Y-35039D01*
X51060Y-37006D02*
X52060Y-37006D01*
X48818Y-37617D02*
X49390Y-37617D01*
X50001Y-37006D02*
X51060Y-37006D01*
X49390Y-37617D02*
X50001Y-37006D01*
X49015Y-34766D02*
X49015Y-36614D01*
X48818Y-36811D02*
X48818Y-37617D01*
X49015Y-36614D02*
X48818Y-36811D01*
X35629Y-37332D02*
X35629Y-36811D01*
X36140Y-36731D02*
X36140Y-37332D01*
X36023Y-36614D02*
X36140Y-36731D01*
X35826Y-36614D02*
X36023Y-36614D01*
X35629Y-36811D02*
X35826Y-36614D01*
X35629Y-37332D02*
X35629Y-37973D01*
X35629Y-37973D02*
X36239Y-38582D01*
M02*
