%FSLAX34Y34*%
G04 Gerber Fmt 3.4, Leading zero omitted, Abs format*
G04 (created by PCBNEW (2014-02-26 BZR 4721)-product) date Wednesday, 03 June 2015 14:52:33*
%MOIN*%
G01*
G70*
G90*
G04 APERTURE LIST*
%ADD10C,0.005906*%
%ADD11R,0.060000X0.060000*%
%ADD12C,0.060000*%
%ADD13O,0.060000X0.100000*%
%ADD14C,0.155000*%
%ADD15C,0.035000*%
%ADD16C,0.011811*%
%ADD17C,0.010000*%
G04 APERTURE END LIST*
G54D10*
G54D11*
X51559Y-32283D03*
G54D12*
X52559Y-32283D03*
X53559Y-32283D03*
G54D11*
X51074Y-45669D03*
G54D12*
X52074Y-45669D03*
G54D11*
X43003Y-34645D03*
G54D12*
X44003Y-34645D03*
G54D11*
X39066Y-42125D03*
G54D12*
X40066Y-42125D03*
G54D11*
X54421Y-45669D03*
G54D12*
X55421Y-45669D03*
G54D11*
X47334Y-45669D03*
G54D12*
X48334Y-45669D03*
G54D11*
X33948Y-42125D03*
G54D12*
X34948Y-42125D03*
G54D11*
X56692Y-42610D03*
G54D12*
X56692Y-43610D03*
G54D11*
X41338Y-38885D03*
G54D12*
X41338Y-37885D03*
G54D11*
X50196Y-43503D03*
X55118Y-42716D03*
X54724Y-35039D03*
G54D13*
X55964Y-48832D03*
X54964Y-48832D03*
X53964Y-48832D03*
X50964Y-48832D03*
X51964Y-48832D03*
X52964Y-48832D03*
X48964Y-48832D03*
X47964Y-48832D03*
X46964Y-48832D03*
X44964Y-48832D03*
X43964Y-48832D03*
X55964Y-29832D03*
X54964Y-29832D03*
X53964Y-29832D03*
X52964Y-29832D03*
X51964Y-29832D03*
X50964Y-29832D03*
X49964Y-29832D03*
X48964Y-29832D03*
X47364Y-29832D03*
X46364Y-29832D03*
X45364Y-29832D03*
X44364Y-29832D03*
X43364Y-29832D03*
X42364Y-29832D03*
X41364Y-29832D03*
X40364Y-29832D03*
X45964Y-48832D03*
G54D14*
X56964Y-46832D03*
X56964Y-35832D03*
X36964Y-29832D03*
X36464Y-48832D03*
G54D15*
X45275Y-41929D03*
X37795Y-38385D03*
X39566Y-36614D03*
X53543Y-38385D03*
X50984Y-38385D03*
X35433Y-31299D03*
X44094Y-39763D03*
X43503Y-36811D03*
X35433Y-30708D03*
X40748Y-40157D03*
X37007Y-40157D03*
X46850Y-36220D03*
X44291Y-38779D03*
X33464Y-31692D03*
X34842Y-31692D03*
X36811Y-34055D03*
G54D16*
X50984Y-38385D02*
X53543Y-38385D01*
X46291Y-30905D02*
X47364Y-29832D01*
X46062Y-30905D02*
X46291Y-30905D01*
X45669Y-31299D02*
X46062Y-30905D01*
X35433Y-31299D02*
X45669Y-31299D01*
X43307Y-38976D02*
X44094Y-39763D01*
X43307Y-37007D02*
X43307Y-38976D01*
X43503Y-36811D02*
X43307Y-37007D01*
X46364Y-30013D02*
X46364Y-29832D01*
X45472Y-30905D02*
X46364Y-30013D01*
X35629Y-30905D02*
X45472Y-30905D01*
X35433Y-30708D02*
X35629Y-30905D01*
X40748Y-40157D02*
X37007Y-40157D01*
X45078Y-36220D02*
X46850Y-36220D01*
X44488Y-36811D02*
X45078Y-36220D01*
X44488Y-38582D02*
X44488Y-36811D01*
X44291Y-38779D02*
X44488Y-38582D01*
X34842Y-31692D02*
X33464Y-31692D01*
X36023Y-32874D02*
X34842Y-31692D01*
X36023Y-33267D02*
X36023Y-32874D01*
X36811Y-34055D02*
X36023Y-33267D01*
G54D10*
G36*
X57626Y-39581D02*
X57475Y-45934D01*
X57243Y-45838D01*
X57243Y-43501D01*
X57159Y-43299D01*
X57020Y-43160D01*
X57042Y-43160D01*
X57134Y-43122D01*
X57204Y-43051D01*
X57242Y-42959D01*
X57242Y-42860D01*
X57242Y-42260D01*
X57204Y-42168D01*
X57134Y-42098D01*
X57042Y-42060D01*
X56943Y-42060D01*
X56343Y-42060D01*
X56251Y-42098D01*
X56180Y-42168D01*
X56142Y-42260D01*
X56142Y-42359D01*
X56142Y-42959D01*
X56180Y-43051D01*
X56251Y-43122D01*
X56343Y-43160D01*
X56365Y-43160D01*
X56226Y-43298D01*
X56143Y-43500D01*
X56142Y-43719D01*
X56226Y-43921D01*
X56380Y-44076D01*
X56583Y-44160D01*
X56801Y-44160D01*
X57004Y-44076D01*
X57158Y-43922D01*
X57242Y-43720D01*
X57243Y-43501D01*
X57243Y-45838D01*
X57169Y-45807D01*
X56761Y-45807D01*
X56384Y-45962D01*
X56096Y-46250D01*
X55971Y-46551D01*
X55971Y-45560D01*
X55887Y-45358D01*
X55733Y-45203D01*
X55668Y-45176D01*
X55668Y-43066D01*
X55668Y-42966D01*
X55668Y-42366D01*
X55630Y-42274D01*
X55559Y-42204D01*
X55467Y-42166D01*
X55368Y-42166D01*
X55274Y-42166D01*
X55274Y-35389D01*
X55274Y-35289D01*
X55274Y-34689D01*
X55236Y-34597D01*
X55166Y-34527D01*
X55074Y-34489D01*
X54974Y-34489D01*
X54374Y-34489D01*
X54282Y-34527D01*
X54212Y-34597D01*
X54174Y-34689D01*
X54174Y-34789D01*
X54174Y-35389D01*
X54212Y-35480D01*
X54282Y-35551D01*
X54374Y-35589D01*
X54474Y-35589D01*
X55074Y-35589D01*
X55166Y-35551D01*
X55236Y-35480D01*
X55274Y-35389D01*
X55274Y-42166D01*
X54768Y-42166D01*
X54676Y-42204D01*
X54606Y-42274D01*
X54568Y-42366D01*
X54568Y-42466D01*
X54568Y-43066D01*
X54606Y-43158D01*
X54676Y-43228D01*
X54768Y-43266D01*
X54867Y-43266D01*
X55467Y-43266D01*
X55559Y-43228D01*
X55630Y-43158D01*
X55668Y-43066D01*
X55668Y-45176D01*
X55531Y-45119D01*
X55312Y-45119D01*
X55110Y-45202D01*
X54971Y-45341D01*
X54971Y-45319D01*
X54933Y-45227D01*
X54862Y-45157D01*
X54770Y-45119D01*
X54533Y-45119D01*
X54471Y-45181D01*
X54471Y-45619D01*
X54479Y-45619D01*
X54479Y-45719D01*
X54471Y-45719D01*
X54471Y-46156D01*
X54533Y-46219D01*
X54770Y-46219D01*
X54862Y-46181D01*
X54933Y-46110D01*
X54971Y-46019D01*
X54971Y-45997D01*
X55109Y-46135D01*
X55311Y-46219D01*
X55530Y-46219D01*
X55732Y-46135D01*
X55887Y-45981D01*
X55971Y-45779D01*
X55971Y-45560D01*
X55971Y-46551D01*
X55939Y-46627D01*
X55939Y-47035D01*
X56095Y-47412D01*
X56383Y-47700D01*
X56759Y-47857D01*
X57167Y-47857D01*
X57432Y-47748D01*
X57430Y-47816D01*
X56514Y-48961D01*
X56514Y-48617D01*
X56472Y-48407D01*
X56353Y-48228D01*
X56175Y-48109D01*
X55964Y-48067D01*
X55754Y-48109D01*
X55575Y-48228D01*
X55464Y-48394D01*
X55353Y-48228D01*
X55175Y-48109D01*
X54964Y-48067D01*
X54754Y-48109D01*
X54575Y-48228D01*
X54464Y-48394D01*
X54371Y-48255D01*
X54371Y-46156D01*
X54371Y-45719D01*
X54371Y-45619D01*
X54371Y-45181D01*
X54308Y-45119D01*
X54109Y-45119D01*
X54109Y-32174D01*
X54025Y-31972D01*
X53871Y-31817D01*
X53668Y-31733D01*
X53450Y-31733D01*
X53247Y-31816D01*
X53093Y-31971D01*
X53061Y-32047D01*
X53040Y-31995D01*
X52944Y-31968D01*
X52874Y-32038D01*
X52874Y-31897D01*
X52846Y-31802D01*
X52640Y-31728D01*
X52422Y-31739D01*
X52271Y-31802D01*
X52243Y-31897D01*
X52559Y-32212D01*
X52874Y-31897D01*
X52874Y-32038D01*
X52629Y-32283D01*
X52944Y-32598D01*
X53040Y-32571D01*
X53060Y-32516D01*
X53092Y-32594D01*
X53247Y-32749D01*
X53449Y-32833D01*
X53667Y-32833D01*
X53870Y-32750D01*
X54025Y-32595D01*
X54108Y-32393D01*
X54109Y-32174D01*
X54109Y-45119D01*
X54071Y-45119D01*
X53979Y-45157D01*
X53909Y-45227D01*
X53871Y-45319D01*
X53871Y-45419D01*
X53871Y-45556D01*
X53933Y-45619D01*
X54371Y-45619D01*
X54371Y-45719D01*
X53933Y-45719D01*
X53871Y-45781D01*
X53871Y-45919D01*
X53871Y-46019D01*
X53909Y-46110D01*
X53979Y-46181D01*
X54071Y-46219D01*
X54308Y-46219D01*
X54371Y-46156D01*
X54371Y-48255D01*
X54353Y-48228D01*
X54175Y-48109D01*
X53964Y-48067D01*
X53754Y-48109D01*
X53575Y-48228D01*
X53464Y-48394D01*
X53353Y-48228D01*
X53175Y-48109D01*
X52964Y-48067D01*
X52874Y-48085D01*
X52874Y-32669D01*
X52559Y-32354D01*
X52488Y-32424D01*
X52488Y-32283D01*
X52173Y-31968D01*
X52109Y-31986D01*
X52109Y-31933D01*
X52070Y-31841D01*
X52000Y-31771D01*
X51908Y-31733D01*
X51809Y-31733D01*
X51209Y-31733D01*
X51117Y-31771D01*
X51047Y-31841D01*
X51009Y-31933D01*
X51009Y-32033D01*
X51009Y-32633D01*
X51047Y-32725D01*
X51117Y-32795D01*
X51209Y-32833D01*
X51308Y-32833D01*
X51908Y-32833D01*
X52000Y-32795D01*
X52070Y-32725D01*
X52109Y-32633D01*
X52109Y-32580D01*
X52173Y-32598D01*
X52488Y-32283D01*
X52488Y-32424D01*
X52243Y-32669D01*
X52271Y-32764D01*
X52477Y-32838D01*
X52695Y-32827D01*
X52846Y-32764D01*
X52874Y-32669D01*
X52874Y-48085D01*
X52754Y-48109D01*
X52624Y-48195D01*
X52624Y-45560D01*
X52541Y-45358D01*
X52386Y-45203D01*
X52184Y-45119D01*
X51965Y-45119D01*
X51763Y-45202D01*
X51624Y-45341D01*
X51624Y-45319D01*
X51586Y-45227D01*
X51516Y-45157D01*
X51424Y-45119D01*
X51187Y-45119D01*
X51124Y-45181D01*
X51124Y-45619D01*
X51132Y-45619D01*
X51132Y-45719D01*
X51124Y-45719D01*
X51124Y-46156D01*
X51187Y-46219D01*
X51424Y-46219D01*
X51516Y-46181D01*
X51586Y-46110D01*
X51624Y-46019D01*
X51624Y-45997D01*
X51762Y-46135D01*
X51964Y-46219D01*
X52183Y-46219D01*
X52385Y-46135D01*
X52540Y-45981D01*
X52624Y-45779D01*
X52624Y-45560D01*
X52624Y-48195D01*
X52575Y-48228D01*
X52464Y-48394D01*
X52353Y-48228D01*
X52175Y-48109D01*
X51964Y-48067D01*
X51754Y-48109D01*
X51575Y-48228D01*
X51464Y-48394D01*
X51353Y-48228D01*
X51175Y-48109D01*
X51024Y-48079D01*
X51024Y-46156D01*
X51024Y-45719D01*
X51024Y-45619D01*
X51024Y-45181D01*
X50962Y-45119D01*
X50746Y-45119D01*
X50746Y-43853D01*
X50746Y-43754D01*
X50746Y-43154D01*
X50708Y-43062D01*
X50638Y-42991D01*
X50546Y-42953D01*
X50447Y-42953D01*
X49847Y-42953D01*
X49755Y-42991D01*
X49684Y-43062D01*
X49646Y-43154D01*
X49646Y-43253D01*
X49646Y-43853D01*
X49684Y-43945D01*
X49755Y-44015D01*
X49847Y-44053D01*
X49946Y-44053D01*
X50546Y-44053D01*
X50638Y-44015D01*
X50708Y-43945D01*
X50746Y-43853D01*
X50746Y-45119D01*
X50725Y-45119D01*
X50633Y-45157D01*
X50562Y-45227D01*
X50524Y-45319D01*
X50524Y-45419D01*
X50524Y-45556D01*
X50587Y-45619D01*
X51024Y-45619D01*
X51024Y-45719D01*
X50587Y-45719D01*
X50524Y-45781D01*
X50524Y-45919D01*
X50524Y-46019D01*
X50562Y-46110D01*
X50633Y-46181D01*
X50725Y-46219D01*
X50962Y-46219D01*
X51024Y-46156D01*
X51024Y-48079D01*
X50964Y-48067D01*
X50754Y-48109D01*
X50575Y-48228D01*
X50456Y-48407D01*
X50414Y-48617D01*
X50414Y-49046D01*
X50456Y-49257D01*
X50575Y-49435D01*
X50754Y-49555D01*
X50964Y-49596D01*
X51175Y-49555D01*
X51353Y-49435D01*
X51464Y-49269D01*
X51575Y-49435D01*
X51754Y-49555D01*
X51964Y-49596D01*
X52175Y-49555D01*
X52353Y-49435D01*
X52464Y-49269D01*
X52575Y-49435D01*
X52754Y-49555D01*
X52964Y-49596D01*
X53175Y-49555D01*
X53353Y-49435D01*
X53464Y-49269D01*
X53575Y-49435D01*
X53754Y-49555D01*
X53964Y-49596D01*
X54175Y-49555D01*
X54353Y-49435D01*
X54464Y-49269D01*
X54575Y-49435D01*
X54754Y-49555D01*
X54964Y-49596D01*
X55175Y-49555D01*
X55353Y-49435D01*
X55464Y-49269D01*
X55575Y-49435D01*
X55754Y-49555D01*
X55964Y-49596D01*
X56014Y-49587D01*
X55881Y-49752D01*
X49514Y-49702D01*
X49514Y-49046D01*
X49514Y-48617D01*
X49472Y-48407D01*
X49353Y-48228D01*
X49175Y-48109D01*
X48964Y-48067D01*
X48884Y-48083D01*
X48884Y-45560D01*
X48801Y-45358D01*
X48646Y-45203D01*
X48444Y-45119D01*
X48225Y-45119D01*
X48023Y-45202D01*
X47884Y-45341D01*
X47884Y-45319D01*
X47846Y-45227D01*
X47776Y-45157D01*
X47684Y-45119D01*
X47447Y-45119D01*
X47384Y-45181D01*
X47384Y-45619D01*
X47392Y-45619D01*
X47392Y-45719D01*
X47384Y-45719D01*
X47384Y-46156D01*
X47447Y-46219D01*
X47684Y-46219D01*
X47776Y-46181D01*
X47846Y-46110D01*
X47884Y-46019D01*
X47884Y-45997D01*
X48022Y-46135D01*
X48224Y-46219D01*
X48443Y-46219D01*
X48645Y-46135D01*
X48800Y-45981D01*
X48884Y-45779D01*
X48884Y-45560D01*
X48884Y-48083D01*
X48754Y-48109D01*
X48575Y-48228D01*
X48464Y-48394D01*
X48353Y-48228D01*
X48175Y-48109D01*
X47964Y-48067D01*
X47754Y-48109D01*
X47575Y-48228D01*
X47460Y-48400D01*
X47453Y-48375D01*
X47318Y-48208D01*
X47284Y-48189D01*
X47284Y-46156D01*
X47284Y-45719D01*
X47284Y-45619D01*
X47284Y-45181D01*
X47275Y-45172D01*
X47275Y-36136D01*
X47210Y-35980D01*
X47091Y-35860D01*
X46935Y-35795D01*
X46766Y-35795D01*
X46609Y-35859D01*
X46558Y-35911D01*
X45078Y-35911D01*
X44960Y-35934D01*
X44860Y-36001D01*
X44554Y-36308D01*
X44554Y-34536D01*
X44470Y-34334D01*
X44315Y-34179D01*
X44113Y-34095D01*
X43895Y-34095D01*
X43692Y-34179D01*
X43553Y-34317D01*
X43553Y-34295D01*
X43515Y-34204D01*
X43445Y-34133D01*
X43353Y-34095D01*
X43116Y-34095D01*
X43053Y-34158D01*
X43053Y-34595D01*
X43061Y-34595D01*
X43061Y-34695D01*
X43053Y-34695D01*
X43053Y-35133D01*
X43116Y-35195D01*
X43353Y-35195D01*
X43445Y-35157D01*
X43515Y-35087D01*
X43553Y-34995D01*
X43553Y-34973D01*
X43691Y-35111D01*
X43894Y-35195D01*
X44112Y-35195D01*
X44315Y-35112D01*
X44469Y-34957D01*
X44553Y-34755D01*
X44554Y-34536D01*
X44554Y-36308D01*
X44269Y-36592D01*
X44202Y-36692D01*
X44179Y-36811D01*
X44179Y-38366D01*
X44050Y-38419D01*
X43931Y-38538D01*
X43866Y-38694D01*
X43866Y-38863D01*
X43930Y-39019D01*
X44050Y-39139D01*
X44206Y-39204D01*
X44375Y-39204D01*
X44531Y-39140D01*
X44651Y-39020D01*
X44716Y-38864D01*
X44716Y-38786D01*
X44773Y-38700D01*
X44797Y-38582D01*
X44797Y-36939D01*
X45206Y-36529D01*
X46558Y-36529D01*
X46609Y-36580D01*
X46765Y-36645D01*
X46934Y-36645D01*
X47090Y-36580D01*
X47210Y-36461D01*
X47275Y-36305D01*
X47275Y-36136D01*
X47275Y-45172D01*
X47222Y-45119D01*
X46984Y-45119D01*
X46893Y-45157D01*
X46822Y-45227D01*
X46784Y-45319D01*
X46784Y-45419D01*
X46784Y-45556D01*
X46847Y-45619D01*
X47284Y-45619D01*
X47284Y-45719D01*
X46847Y-45719D01*
X46784Y-45781D01*
X46784Y-45919D01*
X46784Y-46019D01*
X46822Y-46110D01*
X46893Y-46181D01*
X46984Y-46219D01*
X47222Y-46219D01*
X47284Y-46156D01*
X47284Y-48189D01*
X47128Y-48105D01*
X47099Y-48099D01*
X47014Y-48147D01*
X47014Y-48782D01*
X47022Y-48782D01*
X47022Y-48882D01*
X47014Y-48882D01*
X47014Y-49517D01*
X47099Y-49565D01*
X47128Y-49559D01*
X47318Y-49456D01*
X47453Y-49288D01*
X47460Y-49264D01*
X47575Y-49435D01*
X47754Y-49555D01*
X47964Y-49596D01*
X48175Y-49555D01*
X48353Y-49435D01*
X48464Y-49269D01*
X48575Y-49435D01*
X48754Y-49555D01*
X48964Y-49596D01*
X49175Y-49555D01*
X49353Y-49435D01*
X49472Y-49257D01*
X49514Y-49046D01*
X49514Y-49702D01*
X46914Y-49681D01*
X46914Y-49517D01*
X46914Y-48882D01*
X46906Y-48882D01*
X46906Y-48782D01*
X46914Y-48782D01*
X46914Y-48147D01*
X46829Y-48099D01*
X46800Y-48105D01*
X46611Y-48208D01*
X46475Y-48375D01*
X46468Y-48400D01*
X46353Y-48228D01*
X46175Y-48109D01*
X45964Y-48067D01*
X45754Y-48109D01*
X45575Y-48228D01*
X45464Y-48394D01*
X45353Y-48228D01*
X45175Y-48109D01*
X44964Y-48067D01*
X44754Y-48109D01*
X44575Y-48228D01*
X44519Y-48312D01*
X44519Y-39679D01*
X44454Y-39523D01*
X44335Y-39403D01*
X44179Y-39338D01*
X44106Y-39338D01*
X43616Y-38848D01*
X43616Y-37224D01*
X43744Y-37171D01*
X43864Y-37052D01*
X43928Y-36895D01*
X43929Y-36726D01*
X43864Y-36570D01*
X43744Y-36450D01*
X43588Y-36386D01*
X43419Y-36385D01*
X43263Y-36450D01*
X43143Y-36569D01*
X43079Y-36726D01*
X43078Y-36803D01*
X43021Y-36889D01*
X42998Y-37007D01*
X42998Y-38976D01*
X43021Y-39094D01*
X43088Y-39194D01*
X43669Y-39775D01*
X43669Y-39847D01*
X43733Y-40004D01*
X43853Y-40123D01*
X44009Y-40188D01*
X44178Y-40188D01*
X44334Y-40124D01*
X44454Y-40004D01*
X44519Y-39848D01*
X44519Y-39679D01*
X44519Y-48312D01*
X44464Y-48394D01*
X44353Y-48228D01*
X44175Y-48109D01*
X43964Y-48067D01*
X43754Y-48109D01*
X43575Y-48228D01*
X43456Y-48407D01*
X43414Y-48617D01*
X43414Y-49046D01*
X43456Y-49257D01*
X43575Y-49435D01*
X43754Y-49555D01*
X43964Y-49596D01*
X44175Y-49555D01*
X44353Y-49435D01*
X44464Y-49269D01*
X44575Y-49435D01*
X44754Y-49555D01*
X44964Y-49596D01*
X45175Y-49555D01*
X45353Y-49435D01*
X45464Y-49269D01*
X45575Y-49435D01*
X45754Y-49555D01*
X45964Y-49596D01*
X46175Y-49555D01*
X46353Y-49435D01*
X46468Y-49264D01*
X46475Y-49288D01*
X46611Y-49456D01*
X46800Y-49559D01*
X46829Y-49565D01*
X46914Y-49517D01*
X46914Y-49681D01*
X42953Y-49649D01*
X42953Y-35133D01*
X42953Y-34695D01*
X42953Y-34595D01*
X42953Y-34158D01*
X42891Y-34095D01*
X42654Y-34095D01*
X42562Y-34133D01*
X42491Y-34204D01*
X42453Y-34295D01*
X42453Y-34395D01*
X42453Y-34533D01*
X42516Y-34595D01*
X42953Y-34595D01*
X42953Y-34695D01*
X42516Y-34695D01*
X42453Y-34758D01*
X42453Y-34895D01*
X42453Y-34995D01*
X42491Y-35087D01*
X42562Y-35157D01*
X42654Y-35195D01*
X42891Y-35195D01*
X42953Y-35133D01*
X42953Y-49649D01*
X41888Y-49641D01*
X41888Y-37776D01*
X41805Y-37574D01*
X41650Y-37419D01*
X41448Y-37335D01*
X41229Y-37335D01*
X41027Y-37419D01*
X40872Y-37573D01*
X40788Y-37775D01*
X40788Y-37994D01*
X40872Y-38196D01*
X41010Y-38335D01*
X40988Y-38335D01*
X40896Y-38373D01*
X40826Y-38444D01*
X40788Y-38536D01*
X40788Y-38635D01*
X40788Y-39235D01*
X40826Y-39327D01*
X40896Y-39397D01*
X40988Y-39435D01*
X41088Y-39435D01*
X41688Y-39435D01*
X41780Y-39397D01*
X41850Y-39327D01*
X41888Y-39235D01*
X41888Y-39136D01*
X41888Y-38536D01*
X41850Y-38444D01*
X41780Y-38373D01*
X41688Y-38335D01*
X41666Y-38335D01*
X41804Y-38197D01*
X41888Y-37995D01*
X41888Y-37776D01*
X41888Y-49641D01*
X41173Y-49635D01*
X41173Y-40073D01*
X41108Y-39917D01*
X40989Y-39797D01*
X40832Y-39732D01*
X40663Y-39732D01*
X40507Y-39796D01*
X40456Y-39848D01*
X37299Y-39848D01*
X37248Y-39797D01*
X37092Y-39732D01*
X36923Y-39732D01*
X36767Y-39796D01*
X36647Y-39916D01*
X36582Y-40072D01*
X36582Y-40241D01*
X36647Y-40397D01*
X36766Y-40517D01*
X36922Y-40582D01*
X37092Y-40582D01*
X37248Y-40517D01*
X37299Y-40466D01*
X40456Y-40466D01*
X40506Y-40517D01*
X40663Y-40582D01*
X40832Y-40582D01*
X40988Y-40517D01*
X41108Y-40398D01*
X41172Y-40242D01*
X41173Y-40073D01*
X41173Y-49635D01*
X40617Y-49630D01*
X40617Y-42017D01*
X40533Y-41814D01*
X40378Y-41659D01*
X40176Y-41576D01*
X39958Y-41575D01*
X39755Y-41659D01*
X39616Y-41798D01*
X39616Y-41776D01*
X39578Y-41684D01*
X39508Y-41614D01*
X39416Y-41575D01*
X39179Y-41575D01*
X39116Y-41638D01*
X39116Y-42075D01*
X39124Y-42075D01*
X39124Y-42175D01*
X39116Y-42175D01*
X39116Y-42613D01*
X39179Y-42675D01*
X39416Y-42675D01*
X39508Y-42637D01*
X39578Y-42567D01*
X39616Y-42475D01*
X39616Y-42453D01*
X39754Y-42591D01*
X39957Y-42675D01*
X40175Y-42676D01*
X40378Y-42592D01*
X40532Y-42437D01*
X40616Y-42235D01*
X40617Y-42017D01*
X40617Y-49630D01*
X39016Y-49618D01*
X39016Y-42613D01*
X39016Y-42175D01*
X39016Y-42075D01*
X39016Y-41638D01*
X38954Y-41575D01*
X38717Y-41575D01*
X38625Y-41614D01*
X38554Y-41684D01*
X38516Y-41776D01*
X38516Y-41875D01*
X38516Y-42013D01*
X38579Y-42075D01*
X39016Y-42075D01*
X39016Y-42175D01*
X38579Y-42175D01*
X38516Y-42238D01*
X38516Y-42376D01*
X38516Y-42475D01*
X38554Y-42567D01*
X38625Y-42637D01*
X38717Y-42675D01*
X38954Y-42675D01*
X39016Y-42613D01*
X39016Y-49618D01*
X37143Y-49603D01*
X37333Y-49413D01*
X37489Y-49037D01*
X37489Y-48629D01*
X37334Y-48252D01*
X37045Y-47963D01*
X36669Y-47807D01*
X36261Y-47807D01*
X35884Y-47962D01*
X35596Y-48250D01*
X35498Y-48485D01*
X35498Y-42017D01*
X35415Y-41814D01*
X35260Y-41659D01*
X35058Y-41576D01*
X34839Y-41575D01*
X34637Y-41659D01*
X34498Y-41798D01*
X34498Y-41776D01*
X34460Y-41684D01*
X34390Y-41614D01*
X34298Y-41575D01*
X34061Y-41575D01*
X33998Y-41638D01*
X33998Y-42075D01*
X34006Y-42075D01*
X34006Y-42175D01*
X33998Y-42175D01*
X33998Y-42613D01*
X34061Y-42675D01*
X34298Y-42675D01*
X34390Y-42637D01*
X34460Y-42567D01*
X34498Y-42475D01*
X34498Y-42453D01*
X34636Y-42591D01*
X34838Y-42675D01*
X35057Y-42676D01*
X35259Y-42592D01*
X35414Y-42437D01*
X35498Y-42235D01*
X35498Y-42017D01*
X35498Y-48485D01*
X35439Y-48627D01*
X35439Y-49035D01*
X35595Y-49412D01*
X35774Y-49592D01*
X33898Y-49577D01*
X33898Y-42613D01*
X33898Y-42175D01*
X33898Y-42075D01*
X33898Y-41638D01*
X33836Y-41575D01*
X33599Y-41575D01*
X33507Y-41614D01*
X33436Y-41684D01*
X33398Y-41776D01*
X33398Y-41875D01*
X33398Y-42013D01*
X33461Y-42075D01*
X33898Y-42075D01*
X33898Y-42175D01*
X33461Y-42175D01*
X33398Y-42238D01*
X33398Y-42376D01*
X33398Y-42475D01*
X33436Y-42567D01*
X33507Y-42637D01*
X33599Y-42675D01*
X33836Y-42675D01*
X33898Y-42613D01*
X33898Y-49577D01*
X31349Y-49556D01*
X31349Y-29380D01*
X36042Y-29380D01*
X35939Y-29627D01*
X35939Y-30035D01*
X36095Y-30412D01*
X36279Y-30596D01*
X35846Y-30596D01*
X35793Y-30468D01*
X35674Y-30348D01*
X35517Y-30283D01*
X35348Y-30283D01*
X35192Y-30348D01*
X35072Y-30467D01*
X35008Y-30623D01*
X35007Y-30792D01*
X35072Y-30949D01*
X35127Y-31003D01*
X35072Y-31058D01*
X35008Y-31214D01*
X35008Y-31301D01*
X34927Y-31267D01*
X34758Y-31267D01*
X34602Y-31332D01*
X34550Y-31383D01*
X33756Y-31383D01*
X33705Y-31332D01*
X33549Y-31267D01*
X33380Y-31267D01*
X33224Y-31332D01*
X33104Y-31451D01*
X33039Y-31608D01*
X33039Y-31777D01*
X33104Y-31933D01*
X33223Y-32053D01*
X33379Y-32117D01*
X33548Y-32117D01*
X33704Y-32053D01*
X33756Y-32001D01*
X34550Y-32001D01*
X34601Y-32053D01*
X34757Y-32117D01*
X34830Y-32117D01*
X35714Y-33002D01*
X35714Y-33267D01*
X35738Y-33385D01*
X35805Y-33486D01*
X36386Y-34067D01*
X36385Y-34139D01*
X36450Y-34295D01*
X36569Y-34415D01*
X36726Y-34480D01*
X36895Y-34480D01*
X37051Y-34415D01*
X37171Y-34296D01*
X37235Y-34140D01*
X37236Y-33970D01*
X37171Y-33814D01*
X37052Y-33695D01*
X36895Y-33630D01*
X36823Y-33630D01*
X36332Y-33139D01*
X36332Y-32874D01*
X36309Y-32755D01*
X36242Y-32655D01*
X35284Y-31697D01*
X35348Y-31724D01*
X35517Y-31724D01*
X35673Y-31659D01*
X35725Y-31608D01*
X45669Y-31608D01*
X45787Y-31584D01*
X45787Y-31584D01*
X45887Y-31517D01*
X46191Y-31214D01*
X46291Y-31214D01*
X46409Y-31191D01*
X46409Y-31191D01*
X46509Y-31124D01*
X47108Y-30524D01*
X47154Y-30555D01*
X47364Y-30596D01*
X47575Y-30555D01*
X47753Y-30435D01*
X47872Y-30257D01*
X47914Y-30046D01*
X47914Y-29617D01*
X47872Y-29407D01*
X47855Y-29380D01*
X48474Y-29380D01*
X48456Y-29407D01*
X48414Y-29617D01*
X48414Y-30046D01*
X48456Y-30257D01*
X48575Y-30435D01*
X48754Y-30555D01*
X48964Y-30596D01*
X49175Y-30555D01*
X49353Y-30435D01*
X49464Y-30269D01*
X49575Y-30435D01*
X49754Y-30555D01*
X49964Y-30596D01*
X50175Y-30555D01*
X50353Y-30435D01*
X50464Y-30269D01*
X50575Y-30435D01*
X50754Y-30555D01*
X50964Y-30596D01*
X51175Y-30555D01*
X51353Y-30435D01*
X51464Y-30269D01*
X51575Y-30435D01*
X51754Y-30555D01*
X51964Y-30596D01*
X52175Y-30555D01*
X52353Y-30435D01*
X52464Y-30269D01*
X52575Y-30435D01*
X52754Y-30555D01*
X52964Y-30596D01*
X53175Y-30555D01*
X53353Y-30435D01*
X53464Y-30269D01*
X53575Y-30435D01*
X53754Y-30555D01*
X53964Y-30596D01*
X54175Y-30555D01*
X54353Y-30435D01*
X54464Y-30269D01*
X54575Y-30435D01*
X54754Y-30555D01*
X54964Y-30596D01*
X55175Y-30555D01*
X55353Y-30435D01*
X55464Y-30269D01*
X55575Y-30435D01*
X55754Y-30555D01*
X55964Y-30596D01*
X56175Y-30555D01*
X56353Y-30435D01*
X56446Y-30297D01*
X56446Y-34937D01*
X56384Y-34962D01*
X56096Y-35250D01*
X55939Y-35627D01*
X55939Y-36035D01*
X56095Y-36412D01*
X56383Y-36700D01*
X56446Y-36726D01*
X56446Y-37810D01*
X57626Y-39581D01*
X57626Y-39581D01*
G37*
G54D17*
X57626Y-39581D02*
X57475Y-45934D01*
X57243Y-45838D01*
X57243Y-43501D01*
X57159Y-43299D01*
X57020Y-43160D01*
X57042Y-43160D01*
X57134Y-43122D01*
X57204Y-43051D01*
X57242Y-42959D01*
X57242Y-42860D01*
X57242Y-42260D01*
X57204Y-42168D01*
X57134Y-42098D01*
X57042Y-42060D01*
X56943Y-42060D01*
X56343Y-42060D01*
X56251Y-42098D01*
X56180Y-42168D01*
X56142Y-42260D01*
X56142Y-42359D01*
X56142Y-42959D01*
X56180Y-43051D01*
X56251Y-43122D01*
X56343Y-43160D01*
X56365Y-43160D01*
X56226Y-43298D01*
X56143Y-43500D01*
X56142Y-43719D01*
X56226Y-43921D01*
X56380Y-44076D01*
X56583Y-44160D01*
X56801Y-44160D01*
X57004Y-44076D01*
X57158Y-43922D01*
X57242Y-43720D01*
X57243Y-43501D01*
X57243Y-45838D01*
X57169Y-45807D01*
X56761Y-45807D01*
X56384Y-45962D01*
X56096Y-46250D01*
X55971Y-46551D01*
X55971Y-45560D01*
X55887Y-45358D01*
X55733Y-45203D01*
X55668Y-45176D01*
X55668Y-43066D01*
X55668Y-42966D01*
X55668Y-42366D01*
X55630Y-42274D01*
X55559Y-42204D01*
X55467Y-42166D01*
X55368Y-42166D01*
X55274Y-42166D01*
X55274Y-35389D01*
X55274Y-35289D01*
X55274Y-34689D01*
X55236Y-34597D01*
X55166Y-34527D01*
X55074Y-34489D01*
X54974Y-34489D01*
X54374Y-34489D01*
X54282Y-34527D01*
X54212Y-34597D01*
X54174Y-34689D01*
X54174Y-34789D01*
X54174Y-35389D01*
X54212Y-35480D01*
X54282Y-35551D01*
X54374Y-35589D01*
X54474Y-35589D01*
X55074Y-35589D01*
X55166Y-35551D01*
X55236Y-35480D01*
X55274Y-35389D01*
X55274Y-42166D01*
X54768Y-42166D01*
X54676Y-42204D01*
X54606Y-42274D01*
X54568Y-42366D01*
X54568Y-42466D01*
X54568Y-43066D01*
X54606Y-43158D01*
X54676Y-43228D01*
X54768Y-43266D01*
X54867Y-43266D01*
X55467Y-43266D01*
X55559Y-43228D01*
X55630Y-43158D01*
X55668Y-43066D01*
X55668Y-45176D01*
X55531Y-45119D01*
X55312Y-45119D01*
X55110Y-45202D01*
X54971Y-45341D01*
X54971Y-45319D01*
X54933Y-45227D01*
X54862Y-45157D01*
X54770Y-45119D01*
X54533Y-45119D01*
X54471Y-45181D01*
X54471Y-45619D01*
X54479Y-45619D01*
X54479Y-45719D01*
X54471Y-45719D01*
X54471Y-46156D01*
X54533Y-46219D01*
X54770Y-46219D01*
X54862Y-46181D01*
X54933Y-46110D01*
X54971Y-46019D01*
X54971Y-45997D01*
X55109Y-46135D01*
X55311Y-46219D01*
X55530Y-46219D01*
X55732Y-46135D01*
X55887Y-45981D01*
X55971Y-45779D01*
X55971Y-45560D01*
X55971Y-46551D01*
X55939Y-46627D01*
X55939Y-47035D01*
X56095Y-47412D01*
X56383Y-47700D01*
X56759Y-47857D01*
X57167Y-47857D01*
X57432Y-47748D01*
X57430Y-47816D01*
X56514Y-48961D01*
X56514Y-48617D01*
X56472Y-48407D01*
X56353Y-48228D01*
X56175Y-48109D01*
X55964Y-48067D01*
X55754Y-48109D01*
X55575Y-48228D01*
X55464Y-48394D01*
X55353Y-48228D01*
X55175Y-48109D01*
X54964Y-48067D01*
X54754Y-48109D01*
X54575Y-48228D01*
X54464Y-48394D01*
X54371Y-48255D01*
X54371Y-46156D01*
X54371Y-45719D01*
X54371Y-45619D01*
X54371Y-45181D01*
X54308Y-45119D01*
X54109Y-45119D01*
X54109Y-32174D01*
X54025Y-31972D01*
X53871Y-31817D01*
X53668Y-31733D01*
X53450Y-31733D01*
X53247Y-31816D01*
X53093Y-31971D01*
X53061Y-32047D01*
X53040Y-31995D01*
X52944Y-31968D01*
X52874Y-32038D01*
X52874Y-31897D01*
X52846Y-31802D01*
X52640Y-31728D01*
X52422Y-31739D01*
X52271Y-31802D01*
X52243Y-31897D01*
X52559Y-32212D01*
X52874Y-31897D01*
X52874Y-32038D01*
X52629Y-32283D01*
X52944Y-32598D01*
X53040Y-32571D01*
X53060Y-32516D01*
X53092Y-32594D01*
X53247Y-32749D01*
X53449Y-32833D01*
X53667Y-32833D01*
X53870Y-32750D01*
X54025Y-32595D01*
X54108Y-32393D01*
X54109Y-32174D01*
X54109Y-45119D01*
X54071Y-45119D01*
X53979Y-45157D01*
X53909Y-45227D01*
X53871Y-45319D01*
X53871Y-45419D01*
X53871Y-45556D01*
X53933Y-45619D01*
X54371Y-45619D01*
X54371Y-45719D01*
X53933Y-45719D01*
X53871Y-45781D01*
X53871Y-45919D01*
X53871Y-46019D01*
X53909Y-46110D01*
X53979Y-46181D01*
X54071Y-46219D01*
X54308Y-46219D01*
X54371Y-46156D01*
X54371Y-48255D01*
X54353Y-48228D01*
X54175Y-48109D01*
X53964Y-48067D01*
X53754Y-48109D01*
X53575Y-48228D01*
X53464Y-48394D01*
X53353Y-48228D01*
X53175Y-48109D01*
X52964Y-48067D01*
X52874Y-48085D01*
X52874Y-32669D01*
X52559Y-32354D01*
X52488Y-32424D01*
X52488Y-32283D01*
X52173Y-31968D01*
X52109Y-31986D01*
X52109Y-31933D01*
X52070Y-31841D01*
X52000Y-31771D01*
X51908Y-31733D01*
X51809Y-31733D01*
X51209Y-31733D01*
X51117Y-31771D01*
X51047Y-31841D01*
X51009Y-31933D01*
X51009Y-32033D01*
X51009Y-32633D01*
X51047Y-32725D01*
X51117Y-32795D01*
X51209Y-32833D01*
X51308Y-32833D01*
X51908Y-32833D01*
X52000Y-32795D01*
X52070Y-32725D01*
X52109Y-32633D01*
X52109Y-32580D01*
X52173Y-32598D01*
X52488Y-32283D01*
X52488Y-32424D01*
X52243Y-32669D01*
X52271Y-32764D01*
X52477Y-32838D01*
X52695Y-32827D01*
X52846Y-32764D01*
X52874Y-32669D01*
X52874Y-48085D01*
X52754Y-48109D01*
X52624Y-48195D01*
X52624Y-45560D01*
X52541Y-45358D01*
X52386Y-45203D01*
X52184Y-45119D01*
X51965Y-45119D01*
X51763Y-45202D01*
X51624Y-45341D01*
X51624Y-45319D01*
X51586Y-45227D01*
X51516Y-45157D01*
X51424Y-45119D01*
X51187Y-45119D01*
X51124Y-45181D01*
X51124Y-45619D01*
X51132Y-45619D01*
X51132Y-45719D01*
X51124Y-45719D01*
X51124Y-46156D01*
X51187Y-46219D01*
X51424Y-46219D01*
X51516Y-46181D01*
X51586Y-46110D01*
X51624Y-46019D01*
X51624Y-45997D01*
X51762Y-46135D01*
X51964Y-46219D01*
X52183Y-46219D01*
X52385Y-46135D01*
X52540Y-45981D01*
X52624Y-45779D01*
X52624Y-45560D01*
X52624Y-48195D01*
X52575Y-48228D01*
X52464Y-48394D01*
X52353Y-48228D01*
X52175Y-48109D01*
X51964Y-48067D01*
X51754Y-48109D01*
X51575Y-48228D01*
X51464Y-48394D01*
X51353Y-48228D01*
X51175Y-48109D01*
X51024Y-48079D01*
X51024Y-46156D01*
X51024Y-45719D01*
X51024Y-45619D01*
X51024Y-45181D01*
X50962Y-45119D01*
X50746Y-45119D01*
X50746Y-43853D01*
X50746Y-43754D01*
X50746Y-43154D01*
X50708Y-43062D01*
X50638Y-42991D01*
X50546Y-42953D01*
X50447Y-42953D01*
X49847Y-42953D01*
X49755Y-42991D01*
X49684Y-43062D01*
X49646Y-43154D01*
X49646Y-43253D01*
X49646Y-43853D01*
X49684Y-43945D01*
X49755Y-44015D01*
X49847Y-44053D01*
X49946Y-44053D01*
X50546Y-44053D01*
X50638Y-44015D01*
X50708Y-43945D01*
X50746Y-43853D01*
X50746Y-45119D01*
X50725Y-45119D01*
X50633Y-45157D01*
X50562Y-45227D01*
X50524Y-45319D01*
X50524Y-45419D01*
X50524Y-45556D01*
X50587Y-45619D01*
X51024Y-45619D01*
X51024Y-45719D01*
X50587Y-45719D01*
X50524Y-45781D01*
X50524Y-45919D01*
X50524Y-46019D01*
X50562Y-46110D01*
X50633Y-46181D01*
X50725Y-46219D01*
X50962Y-46219D01*
X51024Y-46156D01*
X51024Y-48079D01*
X50964Y-48067D01*
X50754Y-48109D01*
X50575Y-48228D01*
X50456Y-48407D01*
X50414Y-48617D01*
X50414Y-49046D01*
X50456Y-49257D01*
X50575Y-49435D01*
X50754Y-49555D01*
X50964Y-49596D01*
X51175Y-49555D01*
X51353Y-49435D01*
X51464Y-49269D01*
X51575Y-49435D01*
X51754Y-49555D01*
X51964Y-49596D01*
X52175Y-49555D01*
X52353Y-49435D01*
X52464Y-49269D01*
X52575Y-49435D01*
X52754Y-49555D01*
X52964Y-49596D01*
X53175Y-49555D01*
X53353Y-49435D01*
X53464Y-49269D01*
X53575Y-49435D01*
X53754Y-49555D01*
X53964Y-49596D01*
X54175Y-49555D01*
X54353Y-49435D01*
X54464Y-49269D01*
X54575Y-49435D01*
X54754Y-49555D01*
X54964Y-49596D01*
X55175Y-49555D01*
X55353Y-49435D01*
X55464Y-49269D01*
X55575Y-49435D01*
X55754Y-49555D01*
X55964Y-49596D01*
X56014Y-49587D01*
X55881Y-49752D01*
X49514Y-49702D01*
X49514Y-49046D01*
X49514Y-48617D01*
X49472Y-48407D01*
X49353Y-48228D01*
X49175Y-48109D01*
X48964Y-48067D01*
X48884Y-48083D01*
X48884Y-45560D01*
X48801Y-45358D01*
X48646Y-45203D01*
X48444Y-45119D01*
X48225Y-45119D01*
X48023Y-45202D01*
X47884Y-45341D01*
X47884Y-45319D01*
X47846Y-45227D01*
X47776Y-45157D01*
X47684Y-45119D01*
X47447Y-45119D01*
X47384Y-45181D01*
X47384Y-45619D01*
X47392Y-45619D01*
X47392Y-45719D01*
X47384Y-45719D01*
X47384Y-46156D01*
X47447Y-46219D01*
X47684Y-46219D01*
X47776Y-46181D01*
X47846Y-46110D01*
X47884Y-46019D01*
X47884Y-45997D01*
X48022Y-46135D01*
X48224Y-46219D01*
X48443Y-46219D01*
X48645Y-46135D01*
X48800Y-45981D01*
X48884Y-45779D01*
X48884Y-45560D01*
X48884Y-48083D01*
X48754Y-48109D01*
X48575Y-48228D01*
X48464Y-48394D01*
X48353Y-48228D01*
X48175Y-48109D01*
X47964Y-48067D01*
X47754Y-48109D01*
X47575Y-48228D01*
X47460Y-48400D01*
X47453Y-48375D01*
X47318Y-48208D01*
X47284Y-48189D01*
X47284Y-46156D01*
X47284Y-45719D01*
X47284Y-45619D01*
X47284Y-45181D01*
X47275Y-45172D01*
X47275Y-36136D01*
X47210Y-35980D01*
X47091Y-35860D01*
X46935Y-35795D01*
X46766Y-35795D01*
X46609Y-35859D01*
X46558Y-35911D01*
X45078Y-35911D01*
X44960Y-35934D01*
X44860Y-36001D01*
X44554Y-36308D01*
X44554Y-34536D01*
X44470Y-34334D01*
X44315Y-34179D01*
X44113Y-34095D01*
X43895Y-34095D01*
X43692Y-34179D01*
X43553Y-34317D01*
X43553Y-34295D01*
X43515Y-34204D01*
X43445Y-34133D01*
X43353Y-34095D01*
X43116Y-34095D01*
X43053Y-34158D01*
X43053Y-34595D01*
X43061Y-34595D01*
X43061Y-34695D01*
X43053Y-34695D01*
X43053Y-35133D01*
X43116Y-35195D01*
X43353Y-35195D01*
X43445Y-35157D01*
X43515Y-35087D01*
X43553Y-34995D01*
X43553Y-34973D01*
X43691Y-35111D01*
X43894Y-35195D01*
X44112Y-35195D01*
X44315Y-35112D01*
X44469Y-34957D01*
X44553Y-34755D01*
X44554Y-34536D01*
X44554Y-36308D01*
X44269Y-36592D01*
X44202Y-36692D01*
X44179Y-36811D01*
X44179Y-38366D01*
X44050Y-38419D01*
X43931Y-38538D01*
X43866Y-38694D01*
X43866Y-38863D01*
X43930Y-39019D01*
X44050Y-39139D01*
X44206Y-39204D01*
X44375Y-39204D01*
X44531Y-39140D01*
X44651Y-39020D01*
X44716Y-38864D01*
X44716Y-38786D01*
X44773Y-38700D01*
X44797Y-38582D01*
X44797Y-36939D01*
X45206Y-36529D01*
X46558Y-36529D01*
X46609Y-36580D01*
X46765Y-36645D01*
X46934Y-36645D01*
X47090Y-36580D01*
X47210Y-36461D01*
X47275Y-36305D01*
X47275Y-36136D01*
X47275Y-45172D01*
X47222Y-45119D01*
X46984Y-45119D01*
X46893Y-45157D01*
X46822Y-45227D01*
X46784Y-45319D01*
X46784Y-45419D01*
X46784Y-45556D01*
X46847Y-45619D01*
X47284Y-45619D01*
X47284Y-45719D01*
X46847Y-45719D01*
X46784Y-45781D01*
X46784Y-45919D01*
X46784Y-46019D01*
X46822Y-46110D01*
X46893Y-46181D01*
X46984Y-46219D01*
X47222Y-46219D01*
X47284Y-46156D01*
X47284Y-48189D01*
X47128Y-48105D01*
X47099Y-48099D01*
X47014Y-48147D01*
X47014Y-48782D01*
X47022Y-48782D01*
X47022Y-48882D01*
X47014Y-48882D01*
X47014Y-49517D01*
X47099Y-49565D01*
X47128Y-49559D01*
X47318Y-49456D01*
X47453Y-49288D01*
X47460Y-49264D01*
X47575Y-49435D01*
X47754Y-49555D01*
X47964Y-49596D01*
X48175Y-49555D01*
X48353Y-49435D01*
X48464Y-49269D01*
X48575Y-49435D01*
X48754Y-49555D01*
X48964Y-49596D01*
X49175Y-49555D01*
X49353Y-49435D01*
X49472Y-49257D01*
X49514Y-49046D01*
X49514Y-49702D01*
X46914Y-49681D01*
X46914Y-49517D01*
X46914Y-48882D01*
X46906Y-48882D01*
X46906Y-48782D01*
X46914Y-48782D01*
X46914Y-48147D01*
X46829Y-48099D01*
X46800Y-48105D01*
X46611Y-48208D01*
X46475Y-48375D01*
X46468Y-48400D01*
X46353Y-48228D01*
X46175Y-48109D01*
X45964Y-48067D01*
X45754Y-48109D01*
X45575Y-48228D01*
X45464Y-48394D01*
X45353Y-48228D01*
X45175Y-48109D01*
X44964Y-48067D01*
X44754Y-48109D01*
X44575Y-48228D01*
X44519Y-48312D01*
X44519Y-39679D01*
X44454Y-39523D01*
X44335Y-39403D01*
X44179Y-39338D01*
X44106Y-39338D01*
X43616Y-38848D01*
X43616Y-37224D01*
X43744Y-37171D01*
X43864Y-37052D01*
X43928Y-36895D01*
X43929Y-36726D01*
X43864Y-36570D01*
X43744Y-36450D01*
X43588Y-36386D01*
X43419Y-36385D01*
X43263Y-36450D01*
X43143Y-36569D01*
X43079Y-36726D01*
X43078Y-36803D01*
X43021Y-36889D01*
X42998Y-37007D01*
X42998Y-38976D01*
X43021Y-39094D01*
X43088Y-39194D01*
X43669Y-39775D01*
X43669Y-39847D01*
X43733Y-40004D01*
X43853Y-40123D01*
X44009Y-40188D01*
X44178Y-40188D01*
X44334Y-40124D01*
X44454Y-40004D01*
X44519Y-39848D01*
X44519Y-39679D01*
X44519Y-48312D01*
X44464Y-48394D01*
X44353Y-48228D01*
X44175Y-48109D01*
X43964Y-48067D01*
X43754Y-48109D01*
X43575Y-48228D01*
X43456Y-48407D01*
X43414Y-48617D01*
X43414Y-49046D01*
X43456Y-49257D01*
X43575Y-49435D01*
X43754Y-49555D01*
X43964Y-49596D01*
X44175Y-49555D01*
X44353Y-49435D01*
X44464Y-49269D01*
X44575Y-49435D01*
X44754Y-49555D01*
X44964Y-49596D01*
X45175Y-49555D01*
X45353Y-49435D01*
X45464Y-49269D01*
X45575Y-49435D01*
X45754Y-49555D01*
X45964Y-49596D01*
X46175Y-49555D01*
X46353Y-49435D01*
X46468Y-49264D01*
X46475Y-49288D01*
X46611Y-49456D01*
X46800Y-49559D01*
X46829Y-49565D01*
X46914Y-49517D01*
X46914Y-49681D01*
X42953Y-49649D01*
X42953Y-35133D01*
X42953Y-34695D01*
X42953Y-34595D01*
X42953Y-34158D01*
X42891Y-34095D01*
X42654Y-34095D01*
X42562Y-34133D01*
X42491Y-34204D01*
X42453Y-34295D01*
X42453Y-34395D01*
X42453Y-34533D01*
X42516Y-34595D01*
X42953Y-34595D01*
X42953Y-34695D01*
X42516Y-34695D01*
X42453Y-34758D01*
X42453Y-34895D01*
X42453Y-34995D01*
X42491Y-35087D01*
X42562Y-35157D01*
X42654Y-35195D01*
X42891Y-35195D01*
X42953Y-35133D01*
X42953Y-49649D01*
X41888Y-49641D01*
X41888Y-37776D01*
X41805Y-37574D01*
X41650Y-37419D01*
X41448Y-37335D01*
X41229Y-37335D01*
X41027Y-37419D01*
X40872Y-37573D01*
X40788Y-37775D01*
X40788Y-37994D01*
X40872Y-38196D01*
X41010Y-38335D01*
X40988Y-38335D01*
X40896Y-38373D01*
X40826Y-38444D01*
X40788Y-38536D01*
X40788Y-38635D01*
X40788Y-39235D01*
X40826Y-39327D01*
X40896Y-39397D01*
X40988Y-39435D01*
X41088Y-39435D01*
X41688Y-39435D01*
X41780Y-39397D01*
X41850Y-39327D01*
X41888Y-39235D01*
X41888Y-39136D01*
X41888Y-38536D01*
X41850Y-38444D01*
X41780Y-38373D01*
X41688Y-38335D01*
X41666Y-38335D01*
X41804Y-38197D01*
X41888Y-37995D01*
X41888Y-37776D01*
X41888Y-49641D01*
X41173Y-49635D01*
X41173Y-40073D01*
X41108Y-39917D01*
X40989Y-39797D01*
X40832Y-39732D01*
X40663Y-39732D01*
X40507Y-39796D01*
X40456Y-39848D01*
X37299Y-39848D01*
X37248Y-39797D01*
X37092Y-39732D01*
X36923Y-39732D01*
X36767Y-39796D01*
X36647Y-39916D01*
X36582Y-40072D01*
X36582Y-40241D01*
X36647Y-40397D01*
X36766Y-40517D01*
X36922Y-40582D01*
X37092Y-40582D01*
X37248Y-40517D01*
X37299Y-40466D01*
X40456Y-40466D01*
X40506Y-40517D01*
X40663Y-40582D01*
X40832Y-40582D01*
X40988Y-40517D01*
X41108Y-40398D01*
X41172Y-40242D01*
X41173Y-40073D01*
X41173Y-49635D01*
X40617Y-49630D01*
X40617Y-42017D01*
X40533Y-41814D01*
X40378Y-41659D01*
X40176Y-41576D01*
X39958Y-41575D01*
X39755Y-41659D01*
X39616Y-41798D01*
X39616Y-41776D01*
X39578Y-41684D01*
X39508Y-41614D01*
X39416Y-41575D01*
X39179Y-41575D01*
X39116Y-41638D01*
X39116Y-42075D01*
X39124Y-42075D01*
X39124Y-42175D01*
X39116Y-42175D01*
X39116Y-42613D01*
X39179Y-42675D01*
X39416Y-42675D01*
X39508Y-42637D01*
X39578Y-42567D01*
X39616Y-42475D01*
X39616Y-42453D01*
X39754Y-42591D01*
X39957Y-42675D01*
X40175Y-42676D01*
X40378Y-42592D01*
X40532Y-42437D01*
X40616Y-42235D01*
X40617Y-42017D01*
X40617Y-49630D01*
X39016Y-49618D01*
X39016Y-42613D01*
X39016Y-42175D01*
X39016Y-42075D01*
X39016Y-41638D01*
X38954Y-41575D01*
X38717Y-41575D01*
X38625Y-41614D01*
X38554Y-41684D01*
X38516Y-41776D01*
X38516Y-41875D01*
X38516Y-42013D01*
X38579Y-42075D01*
X39016Y-42075D01*
X39016Y-42175D01*
X38579Y-42175D01*
X38516Y-42238D01*
X38516Y-42376D01*
X38516Y-42475D01*
X38554Y-42567D01*
X38625Y-42637D01*
X38717Y-42675D01*
X38954Y-42675D01*
X39016Y-42613D01*
X39016Y-49618D01*
X37143Y-49603D01*
X37333Y-49413D01*
X37489Y-49037D01*
X37489Y-48629D01*
X37334Y-48252D01*
X37045Y-47963D01*
X36669Y-47807D01*
X36261Y-47807D01*
X35884Y-47962D01*
X35596Y-48250D01*
X35498Y-48485D01*
X35498Y-42017D01*
X35415Y-41814D01*
X35260Y-41659D01*
X35058Y-41576D01*
X34839Y-41575D01*
X34637Y-41659D01*
X34498Y-41798D01*
X34498Y-41776D01*
X34460Y-41684D01*
X34390Y-41614D01*
X34298Y-41575D01*
X34061Y-41575D01*
X33998Y-41638D01*
X33998Y-42075D01*
X34006Y-42075D01*
X34006Y-42175D01*
X33998Y-42175D01*
X33998Y-42613D01*
X34061Y-42675D01*
X34298Y-42675D01*
X34390Y-42637D01*
X34460Y-42567D01*
X34498Y-42475D01*
X34498Y-42453D01*
X34636Y-42591D01*
X34838Y-42675D01*
X35057Y-42676D01*
X35259Y-42592D01*
X35414Y-42437D01*
X35498Y-42235D01*
X35498Y-42017D01*
X35498Y-48485D01*
X35439Y-48627D01*
X35439Y-49035D01*
X35595Y-49412D01*
X35774Y-49592D01*
X33898Y-49577D01*
X33898Y-42613D01*
X33898Y-42175D01*
X33898Y-42075D01*
X33898Y-41638D01*
X33836Y-41575D01*
X33599Y-41575D01*
X33507Y-41614D01*
X33436Y-41684D01*
X33398Y-41776D01*
X33398Y-41875D01*
X33398Y-42013D01*
X33461Y-42075D01*
X33898Y-42075D01*
X33898Y-42175D01*
X33461Y-42175D01*
X33398Y-42238D01*
X33398Y-42376D01*
X33398Y-42475D01*
X33436Y-42567D01*
X33507Y-42637D01*
X33599Y-42675D01*
X33836Y-42675D01*
X33898Y-42613D01*
X33898Y-49577D01*
X31349Y-49556D01*
X31349Y-29380D01*
X36042Y-29380D01*
X35939Y-29627D01*
X35939Y-30035D01*
X36095Y-30412D01*
X36279Y-30596D01*
X35846Y-30596D01*
X35793Y-30468D01*
X35674Y-30348D01*
X35517Y-30283D01*
X35348Y-30283D01*
X35192Y-30348D01*
X35072Y-30467D01*
X35008Y-30623D01*
X35007Y-30792D01*
X35072Y-30949D01*
X35127Y-31003D01*
X35072Y-31058D01*
X35008Y-31214D01*
X35008Y-31301D01*
X34927Y-31267D01*
X34758Y-31267D01*
X34602Y-31332D01*
X34550Y-31383D01*
X33756Y-31383D01*
X33705Y-31332D01*
X33549Y-31267D01*
X33380Y-31267D01*
X33224Y-31332D01*
X33104Y-31451D01*
X33039Y-31608D01*
X33039Y-31777D01*
X33104Y-31933D01*
X33223Y-32053D01*
X33379Y-32117D01*
X33548Y-32117D01*
X33704Y-32053D01*
X33756Y-32001D01*
X34550Y-32001D01*
X34601Y-32053D01*
X34757Y-32117D01*
X34830Y-32117D01*
X35714Y-33002D01*
X35714Y-33267D01*
X35738Y-33385D01*
X35805Y-33486D01*
X36386Y-34067D01*
X36385Y-34139D01*
X36450Y-34295D01*
X36569Y-34415D01*
X36726Y-34480D01*
X36895Y-34480D01*
X37051Y-34415D01*
X37171Y-34296D01*
X37235Y-34140D01*
X37236Y-33970D01*
X37171Y-33814D01*
X37052Y-33695D01*
X36895Y-33630D01*
X36823Y-33630D01*
X36332Y-33139D01*
X36332Y-32874D01*
X36309Y-32755D01*
X36242Y-32655D01*
X35284Y-31697D01*
X35348Y-31724D01*
X35517Y-31724D01*
X35673Y-31659D01*
X35725Y-31608D01*
X45669Y-31608D01*
X45787Y-31584D01*
X45787Y-31584D01*
X45887Y-31517D01*
X46191Y-31214D01*
X46291Y-31214D01*
X46409Y-31191D01*
X46409Y-31191D01*
X46509Y-31124D01*
X47108Y-30524D01*
X47154Y-30555D01*
X47364Y-30596D01*
X47575Y-30555D01*
X47753Y-30435D01*
X47872Y-30257D01*
X47914Y-30046D01*
X47914Y-29617D01*
X47872Y-29407D01*
X47855Y-29380D01*
X48474Y-29380D01*
X48456Y-29407D01*
X48414Y-29617D01*
X48414Y-30046D01*
X48456Y-30257D01*
X48575Y-30435D01*
X48754Y-30555D01*
X48964Y-30596D01*
X49175Y-30555D01*
X49353Y-30435D01*
X49464Y-30269D01*
X49575Y-30435D01*
X49754Y-30555D01*
X49964Y-30596D01*
X50175Y-30555D01*
X50353Y-30435D01*
X50464Y-30269D01*
X50575Y-30435D01*
X50754Y-30555D01*
X50964Y-30596D01*
X51175Y-30555D01*
X51353Y-30435D01*
X51464Y-30269D01*
X51575Y-30435D01*
X51754Y-30555D01*
X51964Y-30596D01*
X52175Y-30555D01*
X52353Y-30435D01*
X52464Y-30269D01*
X52575Y-30435D01*
X52754Y-30555D01*
X52964Y-30596D01*
X53175Y-30555D01*
X53353Y-30435D01*
X53464Y-30269D01*
X53575Y-30435D01*
X53754Y-30555D01*
X53964Y-30596D01*
X54175Y-30555D01*
X54353Y-30435D01*
X54464Y-30269D01*
X54575Y-30435D01*
X54754Y-30555D01*
X54964Y-30596D01*
X55175Y-30555D01*
X55353Y-30435D01*
X55464Y-30269D01*
X55575Y-30435D01*
X55754Y-30555D01*
X55964Y-30596D01*
X56175Y-30555D01*
X56353Y-30435D01*
X56446Y-30297D01*
X56446Y-34937D01*
X56384Y-34962D01*
X56096Y-35250D01*
X55939Y-35627D01*
X55939Y-36035D01*
X56095Y-36412D01*
X56383Y-36700D01*
X56446Y-36726D01*
X56446Y-37810D01*
X57626Y-39581D01*
M02*
